<svg width="108" height="126" viewBox="0 0 108 126" fill="none" xmlns="http://www.w3.org/2000/svg">
<path d="M22.49 122.616L105.543 74.6194C107.851 73.2857 107.271 69.2553 104.83 68.1646C99.1779 65.6389 92.4279 61.0018 87.9739 53.2799L82.017 42.6396C69.9325 21.6885 43.2486 14.4636 22.417 26.5023C1.88774 38.3662 -5.10028 64.7215 6.8088 85.3684L13.0834 96.5593C17.507 104.229 18.0148 112.427 17.2396 118.664C16.9055 121.353 20.1534 123.966 22.49 122.616Z" fill="#FFE600"/>
<path d="M27.4141 7.83499C31.1841 14.3711 28.9468 22.7287 22.417 26.5023C15.8872 30.2759 7.53752 28.0365 3.76753 21.5004C-0.00246501 14.9643 2.23482 6.6067 8.76464 2.8331C15.2945 -0.940501 23.6441 1.29892 27.4141 7.83499Z" fill="#FFE600"/>
<path d="M22.49 122.616L21.9896 121.75L22.49 122.616ZM17.2396 118.664L16.2472 118.541L17.2396 118.664ZM13.0834 96.5593L12.2111 97.0484L12.2171 97.059L13.0834 96.5593ZM6.8088 85.3684L7.68112 84.8793L7.67503 84.8687L6.8088 85.3684ZM105.543 74.6194L106.044 75.4852L105.543 74.6194ZM104.83 68.1646L105.238 67.2516H105.238L104.83 68.1646ZM87.9739 53.2799L87.1013 53.7684L87.1077 53.7795L87.9739 53.2799ZM82.017 42.6396L82.8896 42.151L82.8832 42.1399L82.017 42.6396ZM22.417 26.5023L21.9166 25.6365L22.417 26.5023ZM61.79 122.095L62.2904 122.96L61.79 122.095ZM18.232 118.788C19.0252 112.404 18.5126 103.971 13.9496 96.0597L12.2171 97.059C16.5013 104.487 17.0043 112.449 16.2472 118.541L18.232 118.788ZM13.9556 96.0703L7.68106 84.8793L5.93655 85.8574L12.2111 97.0484L13.9556 96.0703ZM105.238 67.2516C99.7198 64.7857 93.1607 60.2708 88.8401 52.7802L87.1077 53.7795C91.6951 61.7328 98.6359 66.492 104.422 69.0776L105.238 67.2516ZM88.8465 52.7914L82.8896 42.1511L81.1444 43.1281L87.1013 53.7684L88.8465 52.7914ZM82.8832 42.1399C70.5251 20.7145 43.231 13.3188 21.9166 25.6365L22.9173 27.3681C43.2663 15.6084 69.3399 22.6626 81.1508 43.1392L82.8832 42.1399ZM106.044 75.4852C107.652 74.5554 108.153 72.7477 107.96 71.1785C107.766 69.6107 106.854 67.9736 105.238 67.2516L104.422 69.0776C105.247 69.4463 105.845 70.3698 105.975 71.4233C106.105 72.4754 105.742 73.3497 105.043 73.7536L106.044 75.4852ZM7.67503 84.8687C-3.96074 64.6957 2.87026 38.9534 22.9173 27.3681L21.9166 25.6365C0.905217 37.779 -6.23983 64.7473 5.94257 85.868L7.67503 84.8687ZM21.9896 121.75C21.2852 122.157 20.3329 122.026 19.4747 121.363C18.6159 120.7 18.1192 119.695 18.232 118.788L16.2472 118.541C16.0259 120.322 16.9861 121.968 18.2519 122.946C19.5183 123.924 21.3582 124.425 22.9904 123.482L21.9896 121.75ZM105.043 73.7536L21.9896 121.75L22.9904 123.482L106.044 75.4852L105.043 73.7536ZM69.0593 95.7026C74.0555 104.365 70.6595 115.814 61.2897 121.229L62.2904 122.96C72.51 117.054 76.3988 104.424 70.7918 94.7033L69.0593 95.7026ZM61.2897 121.229C51.9203 126.643 40.3177 123.863 35.322 115.201L33.5895 116.201C39.1969 125.922 52.0704 128.867 62.2904 122.96L61.2897 121.229ZM26.5479 8.33463C30.0423 14.393 27.9682 22.1393 21.9166 25.6365L22.9173 27.3681C29.9255 23.3181 32.3259 14.3492 28.2803 7.33535L26.5479 8.33463ZM21.9166 25.6365C15.8657 29.1334 8.12787 27.0585 4.63376 21.0008L2.9013 22.0001C6.94717 29.0144 15.9087 31.4185 22.9173 27.3681L21.9166 25.6365ZM4.63376 21.0008C1.13932 14.9424 3.21346 7.19612 9.265 3.69892L8.26428 1.96728C1.25617 6.01729 -1.14425 14.9862 2.9013 22.0001L4.63376 21.0008ZM9.265 3.69892C15.316 0.202045 23.0538 2.27686 26.5479 8.33463L28.2803 7.33535C24.2345 0.320985 15.2729 -2.08305 8.26428 1.96728L9.265 3.69892Z" fill="black"/>
</svg>
