<svg width="18" height="18" viewBox="0 0 18 18" fill="none" xmlns="http://www.w3.org/2000/svg">
<g clip-path="url(#clip0_1235_1375)">
<path d="M10.3059 1.10974C9.59036 0.394102 8.63889 0 7.62688 0C6.61487 0 5.6634 0.394102 4.94783 1.10974L3.40144 2.65613L8.75958 8.01427L10.3059 6.46788C11.7832 4.99065 11.7832 2.58698 10.3059 1.10974Z" fill="#9B9B9B"/>
<path d="M2.65521 3.40234L1.10883 4.9487C-0.368439 6.42593 -0.368439 8.82961 1.10883 10.3068C1.82443 11.0225 2.77587 11.4166 3.78788 11.4166C4.79989 11.4166 5.75136 11.0225 6.46696 10.3068L8.01331 8.76049L2.65521 3.40234Z" fill="#9B9B9B"/>
<path d="M16.8912 7.69495C16.1756 6.97931 15.2241 6.58521 14.2121 6.58521C13.2001 6.58521 12.2486 6.97931 11.533 7.69495L9.98668 9.24131L15.3448 14.5995L16.8912 13.0531C18.3685 11.5759 18.3685 9.17219 16.8912 7.69495Z" fill="#9B9B9B"/>
<path d="M9.24045 9.98755L7.69407 11.5339C6.21684 13.0111 6.21684 15.4148 7.69407 16.892C8.4327 17.6306 9.40291 17.9999 10.3732 17.9999C11.3434 17.9999 12.3136 17.6306 13.0522 16.892L14.5986 15.3457L9.24045 9.98755Z" fill="#9B9B9B"/>
</g>
<defs>
<clipPath id="clip0_1235_1375">
<rect width="18" height="18" fill="white"/>
</clipPath>
</defs>
</svg>
