<svg width="81" height="50" viewBox="0 0 81 50" fill="none" xmlns="http://www.w3.org/2000/svg">
<path fill-rule="evenodd" clip-rule="evenodd" d="M40.8289 15.8419H40.4555V15.9249C37.7276 16.0312 35.2146 17.4341 33.6927 19.7005C31.6416 22.5812 31.6416 26.4453 33.6927 29.3261C35.2148 31.5981 37.7238 33.0142 40.4555 33.1431H40.8289C44.0625 33.3672 47.151 31.7691 48.836 29.0002C50.5209 26.2313 50.5209 22.7538 48.836 19.9848C47.151 17.2159 44.0625 15.6179 40.8289 15.8419ZM38.6714 23.1856C39.0623 22.5579 39.7202 22.1448 40.4554 22.0653H40.6629C41.6058 21.9418 42.5349 22.3755 43.0457 23.1777C43.5565 23.9798 43.5565 25.0052 43.0457 25.8073C42.5349 26.6094 41.6058 27.0432 40.6629 26.9196H40.4554C39.7316 26.8384 39.0796 26.4442 38.6714 25.8409C38.0622 25.0606 38.0622 23.9659 38.6714 23.1856Z" fill="white"/>
<path d="M25.3533 37.541C26.0271 37.5441 26.6831 37.3254 27.2203 36.9187C27.9067 36.4488 28.3763 35.7236 28.5244 34.9051C28.6725 34.0866 28.4868 33.2429 28.0086 32.5623C24.3907 27.8524 24.3907 21.2987 28.0086 16.5888C28.8752 15.2383 28.5895 13.4524 27.3448 12.4398C26.6834 11.9378 25.847 11.7252 25.0262 11.8502C24.2054 11.9753 23.4702 12.4275 22.9884 13.1036C17.7323 20.0182 17.7323 29.5892 22.9884 36.5038C23.5892 37.1757 24.452 37.5541 25.3533 37.541Z" fill="white"/>
<path d="M10.583 49.3241C11.2686 49.3213 11.9361 49.1037 12.4916 48.7017C13.1512 48.1935 13.5796 47.4421 13.681 46.6156C13.7823 45.7891 13.5482 44.9564 13.0309 44.3038C3.98339 32.7076 3.98339 16.4434 13.0309 4.8472C13.9465 3.53169 13.713 1.73594 12.4916 0.698239C11.125 -0.355801 9.165 -0.115423 8.09365 1.2376C-2.69787 15.0797 -2.69787 34.4862 8.09365 48.3283C8.73057 49.019 9.64546 49.385 10.583 49.3241Z" fill="white"/>
<path d="M17.9266 43.4325C18.5695 43.4047 19.19 43.1883 19.7107 42.8102C20.9872 41.82 21.2936 40.0176 20.416 38.6612C14.0761 30.5106 14.0761 19.0968 20.416 10.9462C21.3122 9.61022 21.0424 7.8114 19.7937 6.7972C18.5645 5.715 16.7024 5.78803 15.5617 6.96316C11.6577 12.0117 9.54152 18.2143 9.54574 24.5963C9.56021 30.9751 11.6744 37.1718 15.5617 42.2293C16.1271 42.9679 16.9968 43.4104 17.9266 43.4325Z" fill="white"/>
<path d="M55.6408 37.541C56.6218 37.5476 57.5469 37.0851 58.1301 36.2963C63.3789 29.3639 63.3789 19.7871 58.1301 12.8547C57.4631 11.9653 56.3723 11.4993 55.2686 11.6323C54.1648 11.7653 53.2159 12.477 52.7792 13.4993C52.3425 14.5217 52.4844 15.6994 53.1514 16.5887C56.7762 21.3117 56.7762 27.8807 53.1514 32.6037C52.1529 33.9952 52.4476 35.9293 53.8152 36.9601C54.3534 37.329 54.9884 37.531 55.6408 37.541Z" fill="white"/>
<path d="M70.3695 49.3241C71.3403 49.3276 72.2586 48.8837 72.8589 48.1209C83.6504 34.2787 83.6504 14.8723 72.8589 1.03012C71.7662 -0.183934 69.9208 -0.346519 68.6327 0.657779C67.3446 1.66208 67.0522 3.4914 67.9631 4.84717C77.0026 16.4616 77.0026 32.7308 67.9631 44.3453C66.9135 45.6985 67.1546 47.6454 68.5025 48.7017C69.0464 49.0955 69.6981 49.3128 70.3695 49.3241Z" fill="white"/>
<path d="M62.9428 43.4325C63.9136 43.436 64.8319 42.9922 65.4322 42.2293C69.3282 37.1605 71.4429 30.9478 71.4482 24.5547C71.4227 18.1767 69.2771 11.9882 65.3492 6.96314C64.6983 6.0158 63.5781 5.50448 62.4359 5.63331C61.2937 5.76214 60.3155 6.51014 59.8919 7.57868C59.4683 8.64722 59.6683 9.86226 60.412 10.7387C66.7519 18.8894 66.7519 30.3031 60.412 38.4538C59.9338 39.1344 59.7481 39.9781 59.8962 40.7966C60.0443 41.6151 60.5139 42.3403 61.2003 42.8102C61.7033 43.1919 62.3118 43.4092 62.9428 43.4325Z" fill="white"/>
</svg>
